STARTFONT 2.1
FONT -Monotype-Courier-Regular-R-Normal--50-360-100-100-M-257-iso8859-5
SIZE 36 100 100
FONTBOUNDINGBOX 35 49 -3 -10

STARTPROPERTIES 24
FOUNDRY "Monotype"
FAMILY_NAME "Courier"
WEIGHT_NAME "Regular"
SLANT "R"
SETWIDTH_NAME "Normal"
ADD_STYLE_NAME ""
PIXEL_SIZE 50
POINT_SIZE 360
RESOLUTION_X 100
RESOLUTION_Y 100
SPACING "M"
AVERAGE_WIDTH 257
CHARSET_REGISTRY "iso8859"
CHARSET_ENCODING "5"
FACE_NAME "Courier ISO Latin Cyrillic"
_DEC_DEVICE_FONTNAMES "PS=courier-latcyrillic"
COPYRIGHT "Copyright (c) 1993 Monotype Typography Ltd."
CAP_HEIGHT 29
X_HEIGHT 21
WEIGHT 10
QUAD_WIDTH 30
DEFAULT_CHAR 160
FONT_DESCENT 11
FONT_ASCENT 41
ENDPROPERTIES

CHARS 191

STARTCHAR space
ENCODING 32
SWIDTH 600 0
DWIDTH 30 0
BBX 0 0 0 0
BITMAP
ENDCHAR

STARTCHAR exclam
ENCODING 33
SWIDTH 600 0
DWIDTH 30 0
BBX 9 32 11 -1
BITMAP
1800
3C00
3C00
3C00
3C00
3C00
3C00
3C00
3C00
3C00
3C00
1800
1800
1800
1800
1800
1800
1800
1800
1800
1800
0000
0000
0000
0000
0000
0000
3C00
7E00
7E00
7E00
3C00
ENDCHAR

STARTCHAR quotedbl
ENCODING 34
SWIDTH 600 0
DWIDTH 30 0
BBX 20 14 5 16
BITMAP
3F0FC0
3F0FC0
3F0FC0
3E0FC0
3E07C0
3E07C0
3E0780
1E0780
1E0780
1E0780
1C0780
1C0380
1C0380
080100
ENDCHAR

STARTCHAR numbersign
ENCODING 35
SWIDTH 600 0
DWIDTH 30 0
BBX 24 36 3 -3
BITMAP
004080
0061C0
006180
006180
006180
006180
00C180
00C180
00C180
00C180
00C180
00C180
00C180
1FFFFC
1FFFFC
00C380
00C300
00C300
00C300
00C300
018300
3FFFF8
3FFFF8
018300
018300
018300
018300
018300
018300
018600
018600
018600
018600
018600
030600
010200
ENDCHAR

STARTCHAR dollar
ENCODING 36
SWIDTH 600 0
DWIDTH 30 0
BBX 22 38 5 -4
BITMAP
006000
006000
006000
006000
01F000
07FE60
0F07E0
1C01E0
1800E0
300060
300060
300000
300000
380000
1C0000
0F0000
07F800
00FF00
0007C0
0000E0
000070
000030
000030
600030
600030
600070
700060
7C01C0
6F0F80
67FF00
007800
006000
006000
006000
006000
006000
006000
006000
ENDCHAR

STARTCHAR percent
ENCODING 37
SWIDTH 600 0
DWIDTH 30 0
BBX 23 32 4 -1
BITMAP
03C000
07F000
0C1800
180C00
100400
300600
300600
300600
100400
180C00
0C1800
07F000
01C00C
000078
0003C0
001E00
00F000
078000
3C0000
200780
001FC0
003060
006030
004010
00C018
00C018
00C018
004010
006030
003060
001FC0
000700
ENDCHAR

STARTCHAR ampersand
ENCODING 38
SWIDTH 600 0
DWIDTH 30 0
BBX 21 27 5 -1
BITMAP
00F800
03FF00
070E00
060000
0C0000
0C0000
0C0000
0C0000
060000
060000
030000
030000
078000
0FC000
1CC0E0
30E0E0
3070C0
603180
603980
601F80
600F00
700E00
300E00
380F00
1C3BE0
0FF1E0
03E000
ENDCHAR

STARTCHAR quoteright
ENCODING 39
SWIDTH 600 0
DWIDTH 30 0
BBX 13 15 6 16
BITMAP
07E0
07E0
0FC0
0FC0
0F80
1F80
1F00
1F00
1E00
3E00
3C00
3800
7800
7000
7000
ENDCHAR

STARTCHAR parenleft
ENCODING 40
SWIDTH 600 0
DWIDTH 30 0
BBX 12 37 13 -7
BITMAP
00C0
00C0
01C0
0380
0380
0300
0700
0600
0E00
0E00
1C00
1C00
1C00
1C00
3800
3800
3800
3800
3800
3800
3800
3800
3800
1C00
1C00
1C00
1C00
0E00
0E00
0600
0700
0300
0380
0180
01C0
00C0
00C0
ENDCHAR

STARTCHAR parenright
ENCODING 41
SWIDTH 600 0
DWIDTH 30 0
BBX 12 37 6 -7
BITMAP
3000
3800
3800
1C00
0C00
0E00
0E00
0700
0700
0380
0380
0380
0380
03C0
01C0
01C0
01C0
01C0
01C0
01C0
01C0
01C0
01C0
01C0
0380
0380
0380
0380
0700
0700
0E00
0E00
0C00
1C00
1800
3800
3000
ENDCHAR

STARTCHAR asterisk
ENCODING 42
SWIDTH 600 0
DWIDTH 30 0
BBX 22 17 4 13
BITMAP
003000
003000
003000
003000
003000
203010
3C30F0
1FB7E0
03FF00
007800
007800
00FC00
01CE00
018600
030300
070380
060180
ENDCHAR

STARTCHAR plus
ENCODING 43
SWIDTH 600 0
DWIDTH 30 0
BBX 26 24 2 2
BITMAP
000C0000
000C0000
000C0000
000C0000
000C0000
000C0000
000C0000
000C0000
000C0000
000C0000
000C0000
3FFFFF00
3FFFFF00
000C0000
000C0000
000C0000
000C0000
000C0000
000C0000
000C0000
000C0000
000C0000
000C0000
000C0000
ENDCHAR

STARTCHAR comma
ENCODING 44
SWIDTH 600 0
DWIDTH 30 0
BBX 13 14 6 -7
BITMAP
07E0
0FE0
0FC0
0FC0
0F80
1F00
1F00
1E00
3E00
3C00
3C00
3800
7800
7000
ENDCHAR

STARTCHAR minus
ENCODING 45
SWIDTH 600 0
DWIDTH 30 0
BBX 26 2 2 13
BITMAP
3FFFFF00
3FFFFF00
ENDCHAR

STARTCHAR period
ENCODING 46
SWIDTH 600 0
DWIDTH 30 0
BBX 10 7 10 -1
BITMAP
1E00
3F00
7F80
7F80
7F80
3F00
1E00
ENDCHAR

STARTCHAR slash
ENCODING 47
SWIDTH 600 0
DWIDTH 30 0
BBX 22 38 4 -4
BITMAP
000010
000030
000030
000060
000060
0000E0
0000C0
0001C0
000180
000380
000300
000700
000600
000600
000C00
000C00
001800
001800
003000
003000
007000
006000
00E000
00C000
01C000
018000
038000
030000
030000
060000
060000
0C0000
0C0000
180000
180000
380000
300000
300000
ENDCHAR

STARTCHAR zero
ENCODING 48
SWIDTH 600 0
DWIDTH 30 0
BBX 22 32 5 -1
BITMAP
00FC00
03FE00
070700
0E0380
1C01C0
1800C0
380060
300060
300070
700070
600030
600030
600030
600030
600030
600030
600030
600030
600030
600030
600030
600030
700070
300060
300060
380060
1800C0
1C01C0
0E0380
070700
03FE00
00F800
ENDCHAR

STARTCHAR one
ENCODING 49
SWIDTH 600 0
DWIDTH 30 0
BBX 22 31 4 0
BITMAP
003000
01F000
0FF000
3F3000
303000
003000
003000
003000
003000
003000
003000
003000
003000
003000
003000
003000
003000
003000
003000
003000
003000
003000
003000
003000
003000
003000
003000
003000
003000
3FFFF0
3FFFF0
ENDCHAR

STARTCHAR two
ENCODING 50
SWIDTH 600 0
DWIDTH 30 0
BBX 23 31 3 0
BITMAP
007E00
03FF80
0781C0
0E00E0
1C0070
180030
380018
300018
000018
000018
000018
000030
000070
000060
0000C0
000180
000300
000600
000C00
001800
007000
00E000
01C000
038000
070000
0E0000
1C0000
380018
700018
7FFFF8
7FFFF8
ENDCHAR

STARTCHAR three
ENCODING 51
SWIDTH 600 0
DWIDTH 30 0
BBX 24 32 3 -1
BITMAP
007E00
03FFC0
0781E0
0E0070
1C0030
000018
000018
000018
000018
000018
000030
000070
0000E0
003FC0
003F80
0007C0
0000E0
000070
000038
000018
00000C
00000C
00000C
00000C
00000C
00001C
000018
300030
3C0070
1F01E0
07FF80
00FE00
ENDCHAR

STARTCHAR four
ENCODING 52
SWIDTH 600 0
DWIDTH 30 0
BBX 22 30 4 0
BITMAP
000780
000F80
001D80
001980
003980
003180
006180
00E180
00C180
01C180
018180
030180
030180
060180
0E0180
0C0180
1C0180
180180
300180
300180
7FFFF0
7FFFF0
000180
000180
000180
000180
000180
000180
003FF0
003FF0
ENDCHAR

STARTCHAR five
ENCODING 53
SWIDTH 600 0
DWIDTH 30 0
BBX 24 31 3 -1
BITMAP
0FFFF0
0FFFF0
0C0000
0C0000
0C0000
0C0000
0C0000
0C0000
0C0000
0C0000
0C7F00
0FFFC0
0F81E0
0E0070
000038
000018
00001C
00000C
00000C
00000C
00000C
00000C
00000C
00001C
000018
200038
380030
3C00E0
0F83C0
03FF80
00FE00
ENDCHAR

STARTCHAR six
ENCODING 54
SWIDTH 600 0
DWIDTH 30 0
BBX 22 32 6 -1
BITMAP
000FE0
003FF0
00F830
01C000
038000
070000
0E0000
1C0000
180000
380000
300000
300000
600000
607C00
61FF00
638380
6701C0
6E00E0
7C0060
780070
700030
300030
300030
300030
380030
180070
180060
0C00E0
0E01C0
078380
01FF00
007C00
ENDCHAR

STARTCHAR seven
ENCODING 55
SWIDTH 600 0
DWIDTH 30 0
BBX 22 30 4 0
BITMAP
7FFFF0
7FFFF0
600030
600030
600070
000060
000060
000060
0000C0
0000C0
0000C0
000180
000180
000180
000300
000300
000300
000600
000600
000600
000C00
000C00
000C00
001800
001800
001800
003000
003000
003000
002000
ENDCHAR

STARTCHAR eight
ENCODING 56
SWIDTH 600 0
DWIDTH 30 0
BBX 22 32 5 -1
BITMAP
00F800
03FE00
0F0780
0C01C0
1800C0
1800E0
300060
300060
300060
300060
380060
1800C0
1C01C0
0F0780
03FE00
07FF00
0F0780
1C01C0
3800C0
300060
700060
600030
600030
600030
600030
700070
300060
3800E0
1C01C0
0F0780
07FF00
00FC00
ENDCHAR

STARTCHAR nine
ENCODING 57
SWIDTH 600 0
DWIDTH 30 0
BBX 22 32 6 -1
BITMAP
01F800
07FE00
0F0F00
1C0380
380180
3001C0
3000C0
6000E0
600060
600060
600060
600070
600070
3000F0
3001F0
3803B0
1C0730
0F0E30
07FC30
01F030
000030
000070
000060
000060
0000C0
0001C0
000380
000700
001E00
207C00
7FF000
3F8000
ENDCHAR

STARTCHAR colon
ENCODING 58
SWIDTH 600 0
DWIDTH 30 0
BBX 10 22 10 -1
BITMAP
1E00
3F00
7F80
7F80
7F80
3F00
1E00
0000
0000
0000
0000
0000
0000
0000
0000
1E00
3F00
7F80
7F80
7F80
3F00
1E00
ENDCHAR

STARTCHAR semicolon
ENCODING 59
SWIDTH 600 0
DWIDTH 30 0
BBX 14 26 6 -5
BITMAP
01E0
03F0
07F8
07F8
07F8
03F0
01E0
0000
0000
0000
0000
0000
0000
0000
07E0
07C0
0FC0
0F80
0F80
1F00
1E00
1E00
3C00
3C00
3800
3000
ENDCHAR

STARTCHAR less
ENCODING 60
SWIDTH 600 0
DWIDTH 30 0
BBX 27 25 1 2
BITMAP
00000180
00000380
00000F00
00003C00
0000F000
0003E000
00078000
001E0000
00780000
01E00000
07C00000
0F000000
3C000000
1E000000
07800000
03E00000
00F00000
003C0000
000F0000
0007C000
0001F000
00007800
00001E00
00000780
00000380
ENDCHAR

STARTCHAR equal
ENCODING 61
SWIDTH 600 0
DWIDTH 30 0
BBX 28 9 1 10
BITMAP
3FFFFFC0
3FFFFFC0
00000000
00000000
00000000
00000000
00000000
3FFFFFC0
3FFFFFC0
ENDCHAR

STARTCHAR greater
ENCODING 62
SWIDTH 600 0
DWIDTH 30 0
BBX 27 25 2 2
BITMAP
30000000
3C000000
1E000000
07800000
01E00000
00F80000
003C0000
000F0000
0003C000
0000F000
00007C00
00001E00
00000780
00000F00
00003E00
0000F800
0001E000
00078000
001E0000
007C0000
00F00000
03C00000
0F000000
3C000000
38000000
ENDCHAR

STARTCHAR question
ENCODING 63
SWIDTH 600 0
DWIDTH 30 0
BBX 21 30 5 -1
BITMAP
03FC00
1FFF00
7C0780
7001C0
6000C0
6000E0
600060
000060
000060
000060
000060
0000C0
0001C0
000780
001E00
007800
006000
006000
006000
006000
000000
000000
000000
000000
000000
01F000
03F800
03F800
03F800
01F000
ENDCHAR

STARTCHAR at
ENCODING 64
SWIDTH 600 0
DWIDTH 30 0
BBX 22 35 4 -3
BITMAP
00FC00
03FF00
078380
0E01C0
1C00C0
180060
380060
300060
300060
700060
6000E0
600FE0
601F60
603860
606060
60E060
60C060
60C060
60C060
60C060
606060
607860
603FF0
600FF0
600000
700000
300000
300000
380000
180000
1C0000
0E00E0
0781C0
03FF80
00FE00
ENDCHAR

STARTCHAR A
ENCODING 65
SWIDTH 600 0
DWIDTH 30 0
BBX 32 29 -1 0
BITMAP
03FFC000
03FFC000
00066000
00066000
00066000
000C3000
000C3000
001C3800
00181800
00181800
00300C00
00300C00
00300C00
00600600
00600600
00600600
00C00300
00FFFF00
01FFFF80
01800180
01800180
030000C0
030000C0
030000C0
06000060
06000060
06000070
3FF007FE
3FF00FFC
ENDCHAR

STARTCHAR B
ENCODING 66
SWIDTH 600 0
DWIDTH 30 0
BBX 29 29 0 0
BITMAP
3FFFF000
3FFFFC00
03001E00
03000700
03000300
03000180
03000180
03000180
03000180
03000380
03000300
03000700
03001E00
03FFF800
03FFFE00
03000F00
03000380
030000C0
030000E0
03000060
03000060
03000060
03000060
03000060
030000C0
030001C0
03000780
3FFFFF00
3FFFFC00
ENDCHAR

STARTCHAR C
ENCODING 67
SWIDTH 600 0
DWIDTH 30 0
BBX 26 31 2 -1
BITMAP
003F8000
00FFE300
03C0FB00
07001F00
0E000F00
1C000700
18000300
38000300
30000300
30000000
60000000
60000000
60000000
60000000
60000000
60000000
60000000
60000000
60000000
60000000
70000000
30000000
30000000
18000000
1C000180
0C000300
07000700
03801E00
01E07C00
00FFF000
001FC000
ENDCHAR

STARTCHAR D
ENCODING 68
SWIDTH 600 0
DWIDTH 30 0
BBX 28 29 2 0
BITMAP
3FFFC000
3FFFF000
06007800
06001C00
06000E00
06000700
06000380
06000180
06000180
060000C0
060000C0
060000C0
060000C0
060000C0
060000C0
060000C0
060000C0
060000C0
060000C0
060000C0
06000180
06000180
06000300
06000700
06000E00
06001C00
06007800
3FFFF000
3FFFC000
ENDCHAR

STARTCHAR E
ENCODING 69
SWIDTH 600 0
DWIDTH 30 0
BBX 28 29 0 0
BITMAP
3FFFFF80
3FFFFF80
03000180
03000180
03000180
03000180
03000180
03000180
03000000
03000000
0300C000
0300C000
0300C000
03FFC000
03FFC000
0300C000
0300C000
0300C000
0300C000
03000000
030000C0
030000C0
030000C0
030000C0
030000C0
030000C0
030000C0
3FFFFFC0
3FFFFFC0
ENDCHAR

STARTCHAR F
ENCODING 70
SWIDTH 600 0
DWIDTH 30 0
BBX 28 29 2 0
BITMAP
3FFFFFC0
3FFFFFC0
030000C0
030000C0
030000C0
030000C0
030000C0
030000C0
03000000
03000000
0300C000
0300C000
0300C000
03FFC000
03FFC000
0300C000
0300C000
0300C000
0300C000
03000000
03000000
03000000
03000000
03000000
03000000
03000000
03000000
3FFF8000
3FFF8000
ENDCHAR

STARTCHAR G
ENCODING 71
SWIDTH 600 0
DWIDTH 30 0
BBX 28 31 2 -1
BITMAP
003FC000
00FFF300
03E07F00
07801F00
0E000700
1C000300
18000300
38000300
30000000
30000000
60000000
60000000
60000000
60000000
60000000
60000000
60000000
6003FFC0
6003FFC0
60000300
60000300
30000300
30000300
38000300
18000300
1C000300
0E000300
07800700
03E03F00
00FFFC00
003FE000
ENDCHAR

STARTCHAR H
ENCODING 72
SWIDTH 600 0
DWIDTH 30 0
BBX 27 29 2 0
BITMAP
3FE0FF80
3FE0FF80
06000C00
06000C00
06000C00
06000C00
06000C00
06000C00
06000C00
06000C00
06000C00
06000C00
06000C00
07FFFC00
07FFFC00
06000C00
06000C00
06000C00
06000C00
06000C00
06000C00
06000C00
06000C00
06000C00
06000C00
06000C00
06000C00
7FE0FFC0
7FE0FFC0
ENDCHAR

STARTCHAR I
ENCODING 73
SWIDTH 600 0
DWIDTH 30 0
BBX 22 29 4 0
BITMAP
3FFFF0
3FFFF0
003000
003000
003000
003000
003000
003000
003000
003000
003000
003000
003000
003000
003000
003000
003000
003000
003000
003000
003000
003000
003000
003000
003000
003000
003000
3FFFF0
3FFFF0
ENDCHAR

STARTCHAR J
ENCODING 74
SWIDTH 600 0
DWIDTH 30 0
BBX 28 30 3 -1
BITMAP
007FFFC0
007FFFC0
00003000
00003000
00003000
00003000
00003000
00003000
00003000
00003000
00003000
00003000
00003000
00003000
00003000
00003000
60003000
60003000
60003000
60003000
60003000
60003000
60003000
60007000
60006000
7000E000
3C01C000
0F078000
07FF0000
01FC0000
ENDCHAR

STARTCHAR K
ENCODING 75
SWIDTH 600 0
DWIDTH 30 0
BBX 29 29 1 0
BITMAP
3FF83FE0
3FF83FE0
03000700
03000E00
03001C00
03003800
03007000
0300E000
0301C000
03038000
03070000
030E0000
031C0000
033F0000
03E38000
03C1C000
0380E000
03007000
03003000
03001800
03001800
03000C00
03000C00
03000600
03000600
03000700
03000300
3FF803F0
3FF803F0
ENDCHAR

STARTCHAR L
ENCODING 76
SWIDTH 600 0
DWIDTH 30 0
BBX 28 29 1 0
BITMAP
3FFF0000
3FFF0000
00C00000
00C00000
00C00000
00C00000
00C00000
00C00000
00C00000
00C00000
00C00000
00C00000
00C00000
00C00000
00C00000
00C00000
00C00000
00C000C0
00C000C0
00C000C0
00C000C0
00C000C0
00C000C0
00C000C0
00C000C0
00C000C0
00C000C0
3FFFFFC0
3FFFFFC0
ENDCHAR

STARTCHAR M
ENCODING 77
SWIDTH 600 0
DWIDTH 30 0
BBX 33 29 -1 0
BITMAP
1F8000FE00
1F8000FC00
06C001B000
06C001B000
0660033000
0660033000
0670033000
0630063000
0630063000
06180C3000
06180C3000
060C1C3000
060C183000
060E183000
0606303000
0607303000
0603603000
0603603000
0601E03000
0601C03000
0600003000
0600003000
0600003000
0600003000
0600003000
0600003000
0600003000
3FF007FE00
3FF007FE00
ENDCHAR

STARTCHAR N
ENCODING 78
SWIDTH 600 0
DWIDTH 30 0
BBX 31 29 -1 0
BITMAP
3F801FF8
3FC01FF8
03C000C0
03E000C0
036000C0
033000C0
033000C0
031800C0
031C00C0
030C00C0
030E00C0
030600C0
030300C0
030380C0
030180C0
0301C0C0
0300C0C0
030060C0
030070C0
030030C0
030038C0
030018C0
03000CC0
03000CC0
030006C0
030007C0
030003C0
1FF801C0
1FF801C0
ENDCHAR

STARTCHAR O
ENCODING 79
SWIDTH 600 0
DWIDTH 30 0
BBX 28 30 2 -1
BITMAP
003F8000
00FFE000
01E0F800
07801C00
06000E00
0C000600
1C000700
18000300
30000180
30000180
300001C0
600000C0
600000C0
600000C0
600000C0
600000C0
600000C0
600000C0
600000C0
300001C0
30000180
30000180
18000300
1C000700
0C000600
06000E00
07803C00
01E0F800
00FFE000
003F8000
ENDCHAR

STARTCHAR P
ENCODING 80
SWIDTH 600 0
DWIDTH 30 0
BBX 27 29 2 0
BITMAP
3FFFE000
3FFFF800
03003C00
03000E00
03000700
03000300
03000180
03000180
03000180
03000180
03000180
03000300
03000700
03000E00
03003C00
03FFF800
03FFC000
03000000
03000000
03000000
03000000
03000000
03000000
03000000
03000000
03000000
03000000
3FFF0000
3FFF0000
ENDCHAR

STARTCHAR Q
ENCODING 81
SWIDTH 600 0
DWIDTH 30 0
BBX 28 35 2 -6
BITMAP
003F8000
00FFE000
01E0F800
07801C00
06000E00
0C000600
1C000700
18000300
30000180
30000180
300001C0
600000C0
600000C0
600000C0
600000C0
600000C0
600000C0
600000C0
600000C0
300001C0
30000180
30000180
18000300
1C000700
0C000600
06000E00
07803C00
01E0F800
00FFE000
003F8000
00380000
00700000
01FFC0C0
03FFFFC0
03C07F00
ENDCHAR

STARTCHAR R
ENCODING 82
SWIDTH 600 0
DWIDTH 30 0
BBX 31 29 0 0
BITMAP
3FFFE000
3FFFF800
03003C00
03000E00
03000700
03000380
03000180
03000180
03000180
03000180
03000300
03000700
03000E00
03007C00
03FFF000
03FFC000
0300E000
03007000
03003800
03001C00
03000E00
03000700
03000300
03000380
03000180
030000C0
030000E0
3FF8007C
3FF80078
ENDCHAR

STARTCHAR S
ENCODING 83
SWIDTH 600 0
DWIDTH 30 0
BBX 24 30 3 -1
BITMAP
00FE18
03FF98
0F80F8
0E0078
1C0038
380018
380018
300018
300000
300000
180000
1C0000
0F0000
07F000
01FF80
000FE0
0000F0
000038
000018
00000C
00000C
60000C
60000C
70000C
700018
780038
7C0070
6F01E0
63FFC0
00FE00
ENDCHAR

STARTCHAR T
ENCODING 84
SWIDTH 600 0
DWIDTH 30 0
BBX 26 29 3 0
BITMAP
7FFFFF00
7FFFFF00
60180300
60180300
60180300
60180300
60180300
60180300
60180300
60180300
00180000
00180000
00180000
00180000
00180000
00180000
00180000
00180000
00180000
00180000
00180000
00180000
00180000
00180000
00180000
00180000
00180000
07FFF000
07FFF000
ENDCHAR

STARTCHAR U
ENCODING 85
SWIDTH 600 0
DWIDTH 30 0
BBX 30 30 0 -1
BITMAP
3FF03FF0
3FF03FF0
06000180
06000180
06000180
06000180
06000180
06000180
06000180
06000180
06000180
06000180
06000180
06000180
06000180
06000180
06000180
06000180
06000180
06000180
06000180
06000180
07000180
03000300
03800700
01800600
00E01E00
00787C00
003FF000
000FC000
ENDCHAR

STARTCHAR V
ENCODING 86
SWIDTH 600 0
DWIDTH 30 0
BBX 32 29 -1 0
BITMAP
3FF007FC
3FF00FFC
06000070
06000060
06000060
030000C0
030000C0
038000C0
01800180
01800180
00C00380
00C00300
00C00300
00600600
00600600
00300600
00300C00
00300C00
00181C00
00181800
001C1800
000C3000
000C3000
00067000
00066000
00066000
0003E000
0003C000
0001C000
ENDCHAR

STARTCHAR W
ENCODING 87
SWIDTH 600 0
DWIDTH 30 0
BBX 32 29 -1 0
BITMAP
3FF00FFC
3FF00FFC
0C000030
0C000030
0C000030
0E000030
0603C060
0603C060
0603C060
0603C060
06066060
06066060
06066060
060E7060
070C3060
030C30C0
030C30C0
031818C0
031818C0
031818C0
03181CC0
03300CC0
03300CC0
03B00CC0
01F00780
01E00780
01E00780
01E00780
01C00380
ENDCHAR

STARTCHAR X
ENCODING 88
SWIDTH 600 0
DWIDTH 30 0
BBX 30 29 0 0
BITMAP
3FC01FE0
3FC01FE0
0E000380
07000700
03000700
01800E00
01C01C00
00E03800
00703800
00307000
0038E000
001DC000
000FC000
00078000
00078000
000F8000
000DC000
001CE000
00387000
00703000
00E01800
00E01C00
01C00E00
03800600
07000300
07000380
0E0001C0
3FE01FF0
3FE01FF0
ENDCHAR

STARTCHAR Y
ENCODING 89
SWIDTH 600 0
DWIDTH 30 0
BBX 29 29 0 0
BITMAP
3FC01FE0
3FC01FE0
06000300
07000700
03800600
01800C00
01C00C00
00E01800
00603800
00303000
00386000
0018E000
000CC000
000F8000
00078000
00030000
00030000
00030000
00030000
00030000
00030000
00030000
00030000
00030000
00030000
00030000
00030000
01FFFC00
01FFFC00
ENDCHAR

STARTCHAR Z
ENCODING 90
SWIDTH 600 0
DWIDTH 30 0
BBX 23 29 4 0
BITMAP
3FFFF0
3FFFF0
300030
300070
3000E0
3000C0
300180
300380
300700
000600
000E00
001C00
001800
003000
007000
00E000
00C000
01C000
038018
030018
060018
0E0018
0C0018
180018
380018
700018
600018
7FFFF8
7FFFF8
ENDCHAR

STARTCHAR bracketleft
ENCODING 91
SWIDTH 600 0
DWIDTH 30 0
BBX 11 37 13 -7
BITMAP
7F80
7F80
6000
6000
6000
6000
6000
6000
6000
6000
6000
6000
6000
6000
6000
6000
6000
6000
6000
6000
6000
6000
6000
6000
6000
6000
6000
6000
6000
6000
6000
6000
6000
6000
6000
7F80
7F80
ENDCHAR

STARTCHAR backslash
ENCODING 92
SWIDTH 600 0
DWIDTH 30 0
BBX 22 38 4 -4
BITMAP
200000
300000
300000
180000
180000
0C0000
0C0000
060000
060000
070000
030000
038000
018000
01C000
00C000
00C000
006000
006000
003000
003000
001800
001800
000C00
000C00
000E00
000600
000700
000300
000380
000180
000180
0000C0
0000C0
000060
000060
000030
000030
000010
ENDCHAR

STARTCHAR bracketright
ENCODING 93
SWIDTH 600 0
DWIDTH 30 0
BBX 12 37 6 -7
BITMAP
3FC0
3FC0
00C0
00C0
00C0
00C0
00C0
00C0
00C0
00C0
00C0
00C0
00C0
00C0
00C0
00C0
00C0
00C0
00C0
00C0
00C0
00C0
00C0
00C0
00C0
00C0
00C0
00C0
00C0
00C0
00C0
00C0
00C0
00C0
00C0
3FC0
3FC0
ENDCHAR

STARTCHAR asciicircum
ENCODING 94
SWIDTH 600 0
DWIDTH 30 0
BBX 22 13 4 18
BITMAP
003000
003000
007800
00FC00
01CE00
038700
030300
060180
0E01C0
1C00E0
180070
300030
300010
ENDCHAR

STARTCHAR underscore
ENCODING 95
SWIDTH 600 0
DWIDTH 30 0
BBX 34 3 -2 -6
BITMAP
3FFFFFFF00
7FFFFFFF80
3FFFFFFF00
ENDCHAR

STARTCHAR quoteleft
ENCODING 96
SWIDTH 600 0
DWIDTH 30 0
BBX 13 15 11 16
BITMAP
7F00
3F00
1F80
1F80
0F80
0FC0
07C0
07C0
03C0
03E0
01E0
01E0
00F0
00F0
0060
ENDCHAR

STARTCHAR a
ENCODING 97
SWIDTH 600 0
DWIDTH 30 0
BBX 26 23 3 -1
BITMAP
00FE0000
07FF8000
1F81E000
08006000
00003000
00003000
00003000
00003000
00003000
01FFB000
07FFF000
1F00F000
3C003000
30003000
70003000
60003000
60003000
60007000
7000F000
3003F000
1C0F3F00
0FFE3F00
03F00000
ENDCHAR

STARTCHAR b
ENCODING 98
SWIDTH 600 0
DWIDTH 30 0
BBX 30 31 -1 -1
BITMAP
3F000000
3F000000
03000000
03000000
03000000
03000000
03000000
03000000
0303F000
030FFE00
033C0F00
03700380
03E001C0
03C000E0
03800060
03800060
03800070
03000030
03000030
03000030
03000030
03000030
03800030
03800060
03C00060
03C000C0
03E001C0
03700380
3F3E0F00
3F0FFC00
0003F000
ENDCHAR

STARTCHAR c
ENCODING 99
SWIDTH 600 0
DWIDTH 30 0
BBX 25 23 3 -1
BITMAP
007F0000
03FFCC00
0781FC00
0E003C00
1C001C00
18000C00
30000C00
30000C00
60000000
60000000
60000000
60000000
60000000
60000000
60000000
30000000
30000000
18000600
1C000E00
0E003C00
0780F800
03FFE000
007F0000
ENDCHAR

STARTCHAR d
ENCODING 100
SWIDTH 600 0
DWIDTH 30 0
BBX 29 31 2 -1
BITMAP
00007E00
00007E00
00000600
00000600
00000600
00000600
00000600
00000600
007E0600
01FF8600
0781E600
0E007600
1C003E00
18001E00
30000E00
30000E00
70000600
60000600
60000600
60000600
60000600
60000600
70000600
30000E00
30000E00
18001E00
1C003E00
0E007600
0781E7E0
01FF87E0
007E0000
ENDCHAR

STARTCHAR e
ENCODING 101
SWIDTH 600 0
DWIDTH 30 0
BBX 27 23 1 -1
BITMAP
003F8000
00FFF000
03C0F800
07001C00
0E000E00
0C000700
18000300
18000380
30000180
30000180
3FFFFF80
3FFFFF80
30000000
30000000
38000000
18000000
1C000000
0E000000
06000180
07800780
01E03F00
00FFFC00
001FE000
ENDCHAR

STARTCHAR f
ENCODING 102
SWIDTH 600 0
DWIDTH 30 0
BBX 25 30 4 0
BITMAP
0007FC00
001FFF00
00780200
00600000
00C00000
00C00000
00C00000
00C00000
00C00000
3FFFF800
3FFFF800
00C00000
00C00000
00C00000
00C00000
00C00000
00C00000
00C00000
00C00000
00C00000
00C00000
00C00000
00C00000
00C00000
00C00000
00C00000
00C00000
00C00000
3FFFF000
3FFFF000
ENDCHAR

STARTCHAR g
ENCODING 103
SWIDTH 600 0
DWIDTH 30 0
BBX 28 31 2 -9
BITMAP
00FE0000
03FF8FC0
0783CFC0
0E00EC00
1C003C00
38003C00
30001C00
30001C00
60000C00
60000C00
60000C00
60000C00
60000C00
30001C00
30001C00
38003C00
1C007C00
0E00EC00
0783CC00
03FF8C00
00FE0C00
00000C00
00000C00
00000C00
00000C00
00001C00
00001800
00003800
0000F000
01FFC000
01FF0000
ENDCHAR

STARTCHAR h
ENCODING 104
SWIDTH 600 0
DWIDTH 30 0
BBX 29 30 1 0
BITMAP
3F000000
3F000000
03000000
03000000
03000000
03000000
03000000
03000000
0307C000
031FF000
03783800
03E00C00
03C00E00
03800600
03000600
03000600
03000600
03000600
03000600
03000600
03000600
03000600
03000600
03000600
03000600
03000600
03000600
03000600
3FE03FE0
3FE03FE0
ENDCHAR

STARTCHAR i
ENCODING 105
SWIDTH 600 0
DWIDTH 30 0
BBX 24 31 3 0
BITMAP
003800
003800
003800
003800
003800
000000
000000
000000
000000
000000
0FF800
0FF800
001800
001800
001800
001800
001800
001800
001800
001800
001800
001800
001800
001800
001800
001800
001800
001800
001800
3FFFFC
3FFFFC
ENDCHAR

STARTCHAR j
ENCODING 106
SWIDTH 600 0
DWIDTH 30 0
BBX 19 41 3 -10
BITMAP
000E00
000E00
000E00
000E00
000E00
000000
000000
000000
000000
000000
3FFF80
3FFF80
000180
000180
000180
000180
000180
000180
000180
000180
000180
000180
000180
000180
000180
000180
000180
000180
000180
000180
000180
000180
000180
000180
000180
000180
000300
000700
000E00
3FFC00
3FF000
ENDCHAR

STARTCHAR k
ENCODING 107
SWIDTH 600 0
DWIDTH 30 0
BBX 27 30 3 0
BITMAP
3F000000
3F000000
03000000
03000000
03000000
03000000
03000000
03000000
03000000
0303FE00
0303FE00
0300E000
0301C000
03038000
030E0000
031C0000
03380000
03700000
03F00000
03D80000
038C0000
03060000
03030000
03018000
0301C000
0300E000
03007000
03003800
3F00FF80
3F00FF80
ENDCHAR

STARTCHAR l
ENCODING 108
SWIDTH 600 0
DWIDTH 30 0
BBX 24 30 3 0
BITMAP
0FF800
0FF800
001800
001800
001800
001800
001800
001800
001800
001800
001800
001800
001800
001800
001800
001800
001800
001800
001800
001800
001800
001800
001800
001800
001800
001800
001800
001800
3FFFFC
3FFFFC
ENDCHAR

STARTCHAR m
ENCODING 109
SWIDTH 600 0
DWIDTH 30 0
BBX 33 22 -1 0
BITMAP
003E0F8000
3EFF1FC000
3FE3B8E000
0781F07000
0701E03000
0701C03000
0600C03000
0600C03000
0600C03000
0600C03000
0600C03000
0600C03000
0600C03000
0600C03000
0600C03000
0600C03000
0600C03000
0600C03000
0600C03000
0600C03000
3FC0F83E00
3FC0F83E00
ENDCHAR

STARTCHAR n
ENCODING 110
SWIDTH 600 0
DWIDTH 30 0
BBX 28 22 1 0
BITMAP
000FC000
1F1FF000
1F783800
03E01C00
03C00E00
03800600
03000600
03000600
03000600
03000600
03000600
03000600
03000600
03000600
03000600
03000600
03000600
03000600
03000600
03000600
3FE03FC0
3FE03FC0
ENDCHAR

STARTCHAR o
ENCODING 111
SWIDTH 600 0
DWIDTH 30 0
BBX 26 23 2 -1
BITMAP
007F0000
01FFC000
07C1F000
0E003800
1C001C00
18000C00
38000600
30000600
70000300
60000300
60000300
60000300
60000300
60000300
70000700
30000600
38000600
18000C00
0C001C00
0F003800
03C1F000
01FFC000
007F0000
ENDCHAR

STARTCHAR p
ENCODING 112
SWIDTH 600 0
DWIDTH 30 0
BBX 30 31 -1 -9
BITMAP
0007F000
3F1FFE00
3F3C0F00
03700380
03E001C0
03C000E0
03800060
03800070
03000030
03000030
03000030
03000030
03000030
03800070
03800060
03C000E0
03E001C0
03700380
033C0F00
031FFE00
0303F000
03000000
03000000
03000000
03000000
03000000
03000000
03000000
03000000
3FFC0000
3FFC0000
ENDCHAR

STARTCHAR q
ENCODING 113
SWIDTH 600 0
DWIDTH 30 0
BBX 29 31 2 -9
BITMAP
007F0000
03FFC7E0
0781E7E0
0E007600
1C003E00
38001E00
30000E00
70000E00
60000600
60000600
60000600
60000600
60000600
70000E00
30000E00
38001E00
1C003E00
0E007600
0781E600
03FFC600
007F0600
00000600
00000600
00000600
00000600
00000600
00000600
00000600
00000600
0001FFE0
0001FFE0
ENDCHAR

STARTCHAR r
ENCODING 114
SWIDTH 600 0
DWIDTH 30 0
BBX 26 22 3 0
BITMAP
00007C00
1FC1FF00
1FC3C700
00C70100
00DE0000
00F80000
00F00000
00E00000
00C00000
00C00000
00C00000
00C00000
00C00000
00C00000
00C00000
00C00000
00C00000
00C00000
00C00000
00C00000
3FFFF000
3FFFF000
ENDCHAR

STARTCHAR s
ENCODING 115
SWIDTH 600 0
DWIDTH 30 0
BBX 23 23 4 -1
BITMAP
01FE00
07FFB0
1F03F0
1C00F0
380070
300030
300030
380000
1C0000
0FE000
03FF00
001FC0
0000F0
000030
000038
600018
600018
600018
700030
780070
7F03E0
67FFC0
01FE00
ENDCHAR

STARTCHAR t
ENCODING 116
SWIDTH 600 0
DWIDTH 30 0
BBX 26 29 3 -1
BITMAP
01800000
01800000
01800000
01800000
01800000
01800000
01800000
3FFFF800
3FFFF800
01800000
01800000
01800000
01800000
01800000
01800000
01800000
01800000
01800000
01800000
01800000
01800000
01800000
01800000
01800000
01800000
00C00380
00F01F00
007FFC00
001FE000
ENDCHAR

STARTCHAR u
ENCODING 117
SWIDTH 600 0
DWIDTH 30 0
BBX 29 22 0 -1
BITMAP
3F007F00
3F007F00
03000300
03000300
03000300
03000300
03000300
03000300
03000300
03000300
03000300
03000300
03000300
03000300
03000300
03000300
03000700
03800F00
01803F00
01E0F3E0
00FFE3E0
003F0000
ENDCHAR

STARTCHAR v
ENCODING 118
SWIDTH 600 0
DWIDTH 30 0
BBX 30 21 0 0
BITMAP
3FF03FF0
3FF03FF0
06000180
03000300
03000300
03800700
01800600
01C00600
00C00C00
00C00C00
00601800
00601800
00303800
00303000
00383000
00186000
001C6000
000CC000
000CC000
00078000
00078000
ENDCHAR

STARTCHAR w
ENCODING 119
SWIDTH 600 0
DWIDTH 30 0
BBX 31 21 0 0
BITMAP
3FC007F8
3FC007F8
0C000060
0E0000C0
060000C0
060380C0
060380C0
0603C0C0
0306C180
0306C180
0306E180
030C6180
038C6180
018C7300
01983300
01983300
01F81B00
00F01E00
00F01E00
00E00E00
00E00E00
ENDCHAR

STARTCHAR x
ENCODING 120
SWIDTH 600 0
DWIDTH 30 0
BBX 29 21 1 0
BITMAP
1FE03FC0
1FE03FC0
07000700
03800E00
01C01C00
00E03800
00707000
0038E000
001D8000
00070000
00070000
000DC000
0038E000
00707000
00E03800
01C01C00
03800E00
07000700
0E000380
3FE03FE0
3FE03FE0
ENDCHAR

STARTCHAR y
ENCODING 121
SWIDTH 600 0
DWIDTH 30 0
BBX 29 30 2 -9
BITMAP
3FC01FE0
3FC01FE0
0C000180
06000300
06000300
03000600
03000600
01800C00
01800C00
00C01800
00C01800
00603000
00603000
00306000
00386000
0018C000
001CC000
000D8000
000F8000
00070000
00070000
00060000
00060000
000C0000
000C0000
00180000
00180000
00300000
3FFF0000
3FFF0000
ENDCHAR

STARTCHAR z
ENCODING 122
SWIDTH 600 0
DWIDTH 30 0
BBX 22 21 4 0
BITMAP
3FFFF0
3FFFF0
3000E0
3001C0
300380
300300
000600
000C00
001C00
003800
007000
00E000
01C000
018000
030000
060030
0E0030
1C0030
380030
3FFFF0
3FFFF0
ENDCHAR

STARTCHAR braceleft
ENCODING 123
SWIDTH 600 0
DWIDTH 30 0
BBX 14 37 8 -7
BITMAP
0070
00F0
01C0
0380
0300
0300
0300
0300
0300
0300
0300
0300
0300
0300
0300
0300
0700
1E00
3C00
1E00
0700
0300
0300
0300
0300
0300
0300
0300
0300
0300
0300
0300
0300
0380
01C0
00F0
0070
ENDCHAR

STARTCHAR bar
ENCODING 124
SWIDTH 600 0
DWIDTH 30 0
BBX 5 37 13 -7
BITMAP
60
60
60
60
60
60
60
60
60
60
60
60
60
60
60
60
60
60
60
60
60
60
60
60
60
60
60
60
60
60
60
60
60
60
60
60
60
ENDCHAR

STARTCHAR braceright
ENCODING 125
SWIDTH 600 0
DWIDTH 30 0
BBX 14 37 8 -7
BITMAP
3800
3E00
0E00
0700
0300
0300
0300
0300
0300
0300
0300
0300
0300
0300
0300
0300
0380
01E0
00F0
01F0
0380
0300
0300
0300
0300
0300
0300
0300
0300
0300
0300
0300
0300
0300
0E00
3E00
3800
ENDCHAR

STARTCHAR asciitilde
ENCODING 126
SWIDTH 600 0
DWIDTH 30 0
BBX 24 7 3 11
BITMAP
03C000
0FE000
1C700C
381C1C
300E38
0007F0
0001C0
ENDCHAR

STARTCHAR space
ENCODING 160
SWIDTH 600 0
DWIDTH 31 0
BBX 0 0 0 0
BITMAP
ENDCHAR

STARTCHAR afii10023
ENCODING 161
SWIDTH 600 0
DWIDTH 30 0
BBX 28 37 0 0
BITMAP
00601800
00F03C00
00F03C00
00601800
00000000
00000000
00000000
00000000
3FFFFF80
3FFFFF80
03000180
03000180
03000180
03000180
03000180
03000180
03000000
03000000
0300C000
0300C000
0300C000
03FFC000
03FFC000
0300C000
0300C000
0300C000
0300C000
03000000
030000C0
030000C0
030000C0
030000C0
030000C0
030000C0
030000C0
3FFFFFC0
3FFFFFC0
ENDCHAR

STARTCHAR afii10051
ENCODING 162
SWIDTH 600 0
DWIDTH 30 0
BBX 31 30 -1 -1
BITMAP
3FFFFC00
3FFFFC00
30180C00
30180C00
30180C00
30180C00
30180C00
30180C00
20180C00
00180000
00180000
00180000
00181F80
00187FC0
0019E0E0
001B8070
001E0030
001C0018
00180018
00180018
00180018
00180018
00180018
00180018
00180030
00180030
00180060
01FF81E0
01FF87C0
00000700
ENDCHAR

STARTCHAR afii10052
ENCODING 163
SWIDTH 600 0
DWIDTH 30 0
BBX 28 39 1 0
BITMAP
0000C000
0003C000
00070000
000E0000
001C0000
00380000
00300000
00000000
00000000
00000000
3FFFFFC0
3FFFFFC0
00C000C0
00C000C0
00C000C0
00C000C0
00C000C0
00C000C0
00C000C0
00C000C0
00C000C0
00C000C0
00C00000
00C00000
00C00000
00C00000
00C00000
00C00000
00C00000
00C00000
00C00000
00C00000
00C00000
00C00000
00C00000
00C00000
00C00000
3FFF0000
3FFF0000
ENDCHAR

STARTCHAR afii10053
ENCODING 164
SWIDTH 600 0
DWIDTH 30 0
BBX 26 31 2 -1
BITMAP
003F8000
00FFE300
03C0FB00
07001F00
0E000F00
1C000700
18000300
38000300
30000300
30000000
60000000
60000000
60000000
60000000
7FFF8000
7FFF8000
60000000
60000000
60000000
60000000
70000000
30000000
30000000
18000000
1C000180
0C000300
07000700
03801E00
01E07800
00FFF000
001F8000
ENDCHAR

STARTCHAR afii10054
ENCODING 165
SWIDTH 600 0
DWIDTH 30 0
BBX 24 30 3 -1
BITMAP
00FE18
03FF98
0F80F8
0E0078
1C0038
380018
380018
300018
300000
300000
180000
1C0000
0F0000
07F000
01FF80
000FE0
0000F0
000038
000018
00000C
00000C
60000C
60000C
60000C
700018
780018
7C0070
6F81E0
67FFC0
00FE00
ENDCHAR

STARTCHAR afii10055
ENCODING 166
SWIDTH 600 0
DWIDTH 30 0
BBX 22 29 4 0
BITMAP
3FFFF0
3FFFF0
003000
003000
003000
003000
003000
003000
003000
003000
003000
003000
003000
003000
003000
003000
003000
003000
003000
003000
003000
003000
003000
003000
003000
003000
003000
3FFFF0
3FFFF0
ENDCHAR

STARTCHAR afii10056
ENCODING 167
SWIDTH 600 0
DWIDTH 30 0
BBX 22 37 4 0
BITMAP
060180
0F03C0
0F03C0
060180
000000
000000
000000
000000
3FFFF0
3FFFF0
003000
003000
003000
003000
003000
003000
003000
003000
003000
003000
003000
003000
003000
003000
003000
003000
003000
003000
003000
003000
003000
003000
003000
003000
003000
3FFFF0
3FFFF0
ENDCHAR

STARTCHAR afii10057
ENCODING 168
SWIDTH 600 0
DWIDTH 30 0
BBX 28 30 3 -1
BITMAP
007FFFC0
007FFFC0
00003000
00003000
00003000
00003000
00003000
00003000
00003000
00003000
00003000
00003000
00003000
00003000
00003000
00003000
60003000
60003000
60003000
60003000
60003000
60003000
60003000
60007000
60006000
7000E000
3C01C000
0F078000
07FF0000
00FC0000
ENDCHAR

STARTCHAR afii10058
ENCODING 169
SWIDTH 600 0
DWIDTH 30 0
BBX 31 30 0 -1
BITMAP
03FFFF00
03FFFF00
00306000
00306000
00306000
00306000
00306000
00306000
00306000
00306000
00306000
00306000
00306000
00307F00
00307FC0
003061E0
00306070
00306030
00306038
00306018
00306018
00306018
00306018
60306038
60606030
60606070
60E061E0
61C7FFC0
7F87FF00
3F000000
ENDCHAR

STARTCHAR afii10059
ENCODING 170
SWIDTH 600 0
DWIDTH 30 0
BBX 34 29 -2 0
BITMAP
3FCFF80000
3FCFF80000
0601800000
0601800000
0601800000
0601800000
0601800000
0601800000
0601800000
0601800000
0601800000
0601800000
0601800000
07FFFFC000
07FFFFF000
060180FC00
0601801E00
0601800E00
0601800700
0601800300
0601800300
0601800300
0601800300
0601800700
0601800600
0601800E00
0601803C00
3FCFFFF800
3FCFFFC000
ENDCHAR

STARTCHAR afii10060
ENCODING 171
SWIDTH 600 0
DWIDTH 30 0
BBX 32 29 -1 0
BITMAP
3FFFFC00
3FFFFE00
30180600
30180600
30180600
30180600
30180600
30180600
20180600
00180000
00180000
00180000
00183F00
0018FFC0
0019C1C0
001B80E0
001E0060
001C0030
00180030
00180030
00180030
00180030
00180030
00180030
00180030
00180030
00180030
01FF87FE
01FF87FE
ENDCHAR

STARTCHAR afii10061
ENCODING 172
SWIDTH 600 0
DWIDTH 30 0
BBX 29 39 1 0
BITMAP
00006000
0000E000
0001C000
00038000
00070000
000E0000
001C0000
00100000
00000000
00000000
3FF007C0
3FF00FC0
030018C0
030030C0
030070C0
030060C0
0300E000
0301C000
03018000
03038000
03070000
030E0000
03FC0000
03FE0000
03070000
03038000
0301C000
0300E000
03006000
03007000
03003000
03003800
03001800
03001C00
03000C00
03000C00
03000600
3FF007F0
3FF003F0
ENDCHAR

STARTCHAR hyphen
ENCODING 173
SWIDTH 600 0
DWIDTH 30 0
BBX 24 3 3 13
BITMAP
3FFFFE
3FFFFE
3FFFFE
ENDCHAR

STARTCHAR afii10062
ENCODING 174
SWIDTH 600 0
DWIDTH 30 0
BBX 31 40 -1 -1
BITMAP
00400200
00600300
00600600
00700600
003C1C00
001FF800
0007F000
00000000
00000000
00000000
3FE007FC
3FE007FC
07000060
030000C0
038001C0
01800180
01C00380
00C00300
00E00700
00600600
00700E00
00300C00
00381C00
00181800
001C3800
000C3000
000E7000
00066000
0003C000
0003C000
00018000
00018000
00030000
06030000
06060000
06060000
060C0000
061C0000
07F80000
03E00000
ENDCHAR

STARTCHAR afii10145
ENCODING 175
SWIDTH 600 0
DWIDTH 30 0
BBX 28 36 1 -7
BITMAP
7FE07FE0
7FE07FE0
06000600
06000600
06000600
06000600
06000600
06000600
06000600
06000600
06000600
06000600
06000600
06000600
06000600
06000600
06000600
06000600
06000600
06000600
06000600
06000600
06000600
06000600
06000600
06000600
06000600
3FFFFFE0
7FFFFFE0
00060000
00060000
00060000
00060000
00060000
00060000
00060000
ENDCHAR

STARTCHAR afii10017
ENCODING 176
SWIDTH 600 0
DWIDTH 30 0
BBX 32 29 -1 0
BITMAP
03FFC000
03FFC000
00066000
00066000
00066000
000C3000
000C3000
001C3800
00181800
00181800
00300C00
00300C00
00300C00
00600600
00600600
00600600
00C00300
00FFFF00
01FFFF80
01800180
01800180
030000C0
030000C0
030000C0
06000060
06000060
06000070
3FF007FE
3FF00FFC
ENDCHAR

STARTCHAR afii10018
ENCODING 177
SWIDTH 600 0
DWIDTH 30 0
BBX 29 29 0 0
BITMAP
3FFFFF80
3FFFFF80
03000180
03000180
03000180
03000180
03000180
03000180
03000000
03000000
03000000
03000000
03000000
03FFF800
03FFFE00
03000F80
030003C0
030000C0
030000E0
03000060
03000060
03000060
03000060
030000E0
030000C0
030001C0
03000780
3FFFFF00
3FFFFC00
ENDCHAR

STARTCHAR afii10019
ENCODING 178
SWIDTH 600 0
DWIDTH 30 0
BBX 29 29 0 0
BITMAP
3FFFF000
3FFFFC00
03001E00
03000700
03000300
03000180
03000180
03000180
03000180
03000180
03000300
03000700
03001E00
03FFF800
03FFFE00
03000F00
03000380
030000C0
030000E0
03000060
03000060
03000060
03000060
03000060
030000C0
030001C0
03000780
3FFFFF00
3FFFFC00
ENDCHAR

STARTCHAR afii10020
ENCODING 179
SWIDTH 600 0
DWIDTH 30 0
BBX 28 29 1 0
BITMAP
3FFFFFC0
3FFFFFC0
00C000C0
00C000C0
00C000C0
00C000C0
00C000C0
00C000C0
00C000C0
00C000C0
00C000C0
00C000C0
00C00000
00C00000
00C00000
00C00000
00C00000
00C00000
00C00000
00C00000
00C00000
00C00000
00C00000
00C00000
00C00000
00C00000
00C00000
3FFF0000
3FFF0000
ENDCHAR

STARTCHAR afii10021
ENCODING 180
SWIDTH 600 0
DWIDTH 30 0
BBX 29 36 1 -7
BITMAP
07FFFFE0
07FFFFE0
00600600
00600600
00600600
00600600
00600600
00600600
00600600
00600600
00600600
00600600
00600600
00600600
00600600
00600600
00600600
00600600
00600600
00600600
00C00600
00C00600
00C00600
01C00600
03800600
07000600
0E000600
7FFFFFE0
7FFFFFE0
60000060
60000060
60000060
60000060
60000060
60000060
60000060
ENDCHAR

STARTCHAR afii10022
ENCODING 181
SWIDTH 600 0
DWIDTH 30 0
BBX 28 29 0 0
BITMAP
3FFFFF80
3FFFFF80
03000180
03000180
03000180
03000180
03000180
03000180
03000000
03000000
0300C000
0300C000
0300C000
03FFC000
03FFC000
0300C000
0300C000
0300C000
0300C000
03000000
030000C0
030000C0
030000C0
030000C0
030000C0
030000C0
030000C0
3FFFFFC0
3FFFFFC0
ENDCHAR

STARTCHAR afii10024
ENCODING 182
SWIDTH 600 0
DWIDTH 30 0
BBX 34 29 -2 0
BITMAP
1E07FC1E00
1F07F83E00
1980C07600
19C0C0E600
18C0C0C600
18E0C1C600
0060C18000
0070C38000
0030C30000
0038C70000
0018C60000
000CCE0000
000FFC0000
000FFC0000
001CCE0000
0038C30000
0070C38000
0060C18000
00E0C1C000
00C0C0C000
00C0C0C000
0180C06000
0180C06000
0380C07000
0300C03000
0300C03000
0600C01800
3E07FC1F00
3E07F81F00
ENDCHAR

STARTCHAR afii10025
ENCODING 183
SWIDTH 600 0
DWIDTH 30 0
BBX 27 30 2 -1
BITMAP
103FC000
18FFF000
19E07C00
1F001E00
1E000600
1C000700
1C000300
18000300
18000300
18000300
10000700
00000E00
00001C00
0000F800
00FFE000
00FFF800
00003E00
00000F00
00000380
00000380
00000180
00000180
00000180
00000180
00000380
70000700
3C000E00
1F803C00
07FFF800
007FC000
ENDCHAR

STARTCHAR afii10026
ENCODING 184
SWIDTH 600 0
DWIDTH 30 0
BBX 32 29 -1 0
BITMAP
3FF801FC
3FF801FC
030003C0
030007C0
030006C0
03000CC0
03000CC0
030018C0
030038C0
030030C0
030070C0
030060C0
0300C0C0
0301C0C0
030180C0
030380C0
030300C0
030600C0
030600C0
030C00C0
031C00C0
031800C0
033000C0
033000C0
036000C0
03E000C0
03C000C0
3FC00FFC
3F800FFC
ENDCHAR

STARTCHAR afii10027
ENCODING 185
SWIDTH 600 0
DWIDTH 30 0
BBX 32 39 -1 0
BITMAP
00200100
00700300
00300300
00380700
001C0E00
000FFC00
0003F000
00000000
00000000
00000000
3FF801FC
3FF801FC
030003C0
030007C0
030006C0
03000CC0
03000CC0
030018C0
030038C0
030030C0
030070C0
030060C0
0300C0C0
0301C0C0
030180C0
030380C0
030300C0
030600C0
030600C0
030C00C0
031C00C0
031800C0
033000C0
033000C0
036000C0
03E000C0
03C000C0
3FC00FFC
3F800FFC
ENDCHAR

STARTCHAR afii10028
ENCODING 186
SWIDTH 600 0
DWIDTH 30 0
BBX 29 29 1 0
BITMAP
3FF007C0
3FF00FC0
030018C0
030030C0
030070C0
030060C0
0300E000
0301C000
03018000
03038000
03070000
030E0000
03FC0000
03FE0000
03070000
03038000
0301C000
0300E000
03006000
03007000
03003000
03003800
03001800
03001C00
03000C00
03000C00
03000600
3FF007F0
3FF003F0
ENDCHAR

STARTCHAR afii10029
ENCODING 187
SWIDTH 600 0
DWIDTH 30 0
BBX 31 30 -1 -1
BITMAP
01FFFFFC
01FFFFFC
001800C0
001800C0
001800C0
001800C0
001800C0
001800C0
001800C0
001800C0
001800C0
001800C0
001800C0
001800C0
001800C0
001800C0
001800C0
001800C0
001800C0
001800C0
001800C0
001800C0
001800C0
301800C0
303800C0
303000C0
307000C0
30E00FFC
3FC00FFC
1F800000
ENDCHAR

STARTCHAR afii10030
ENCODING 188
SWIDTH 600 0
DWIDTH 30 0
BBX 33 29 -1 0
BITMAP
1F8000FE00
1F8000FC00
06C001B000
06C001B000
0660033000
0660033000
0670033000
0630063000
0630063000
06180C3000
06180C3000
060C1C3000
060C183000
060E183000
0606303000
0607303000
0603603000
0603603000
0601E03000
0601C03000
0600003000
0600003000
0600003000
0600003000
0600003000
0600003000
0600003000
3FF007FE00
3FF007FE00
ENDCHAR

STARTCHAR afii10031
ENCODING 189
SWIDTH 600 0
DWIDTH 30 0
BBX 27 29 2 0
BITMAP
3FE0FF80
3FE0FF80
06000C00
06000C00
06000C00
06000C00
06000C00
06000C00
06000C00
06000C00
06000C00
06000C00
06000C00
07FFFC00
07FFFC00
06000C00
06000C00
06000C00
06000C00
06000C00
06000C00
06000C00
06000C00
06000C00
06000C00
06000C00
06000C00
7FE0FFC0
7FE0FFC0
ENDCHAR

STARTCHAR afii10032
ENCODING 190
SWIDTH 600 0
DWIDTH 30 0
BBX 28 30 1 -1
BITMAP
003F8000
00FFE000
01E0F800
07801C00
06000E00
0C000600
1C000700
18000300
30000180
30000180
300001C0
600000C0
600000C0
600000C0
600000C0
600000C0
600000C0
600000C0
600000C0
30000180
30000180
38000180
18000300
1C000700
0C000600
07000E00
07803C00
01E0F800
00FFE000
003F8000
ENDCHAR

STARTCHAR afii10033
ENCODING 191
SWIDTH 600 0
DWIDTH 30 0
BBX 27 29 2 0
BITMAP
3FFFFFC0
7FFFFFC0
06000C00
06000C00
06000C00
06000C00
06000C00
06000C00
06000C00
06000C00
06000C00
06000C00
06000C00
06000C00
06000C00
06000C00
06000C00
06000C00
06000C00
06000C00
06000C00
06000C00
06000C00
06000C00
06000C00
06000C00
06000C00
7FE0FFC0
7FE0FFC0
ENDCHAR

STARTCHAR afii10034
ENCODING 192
SWIDTH 600 0
DWIDTH 30 0
BBX 27 29 2 0
BITMAP
3FFFE000
3FFFF800
03003C00
03000E00
03000700
03000300
03000180
03000180
03000180
03000180
03000180
03000300
03000700
03000E00
03003C00
03FFF800
03FFC000
03000000
03000000
03000000
03000000
03000000
03000000
03000000
03000000
03000000
03000000
3FFF0000
3FFF0000
ENDCHAR

STARTCHAR afii10035
ENCODING 193
SWIDTH 600 0
DWIDTH 30 0
BBX 26 31 2 -1
BITMAP
003F8000
00FFE300
03C0FB00
07001F00
0E000F00
1C000700
18000300
38000300
30000300
30000000
60000000
60000000
60000000
60000000
60000000
60000000
60000000
60000000
60000000
60000000
70000000
30000000
30000000
18000000
1C000180
0C000300
07000700
03801E00
01E07800
00FFF000
001F8000
ENDCHAR

STARTCHAR afii10036
ENCODING 194
SWIDTH 600 0
DWIDTH 30 0
BBX 26 29 3 0
BITMAP
7FFFFF00
7FFFFF00
60180300
60180300
60180300
60180300
60180300
60180300
60180300
60180300
00180000
00180000
00180000
00180000
00180000
00180000
00180000
00180000
00180000
00180000
00180000
00180000
00180000
00180000
00180000
00180000
00180000
07FFF000
07FFF000
ENDCHAR

STARTCHAR afii10037
ENCODING 195
SWIDTH 600 0
DWIDTH 30 0
BBX 31 30 -1 -1
BITMAP
3FE007FC
3FE007FC
07000060
030000C0
038001C0
01800180
01C00380
00C00300
00E00700
00600600
00700E00
00300C00
00381C00
00181800
001C3800
000C3000
000E7000
00066000
0003C000
0003C000
00018000
00018000
00030000
06030000
06060000
06060000
060C0000
061C0000
07F80000
03E00000
ENDCHAR

STARTCHAR afii10038
ENCODING 196
SWIDTH 600 0
DWIDTH 30 0
BBX 28 29 2 0
BITMAP
00FFC000
007FC000
000C0000
000C0000
003F8000
03FFF000
07EDFC00
0E0C1E00
1C0C0700
380C0380
300C0180
700C01C0
600C00C0
600C00C0
600C00C0
600C00C0
600C00C0
700C01C0
300C0180
380C0380
1C0C0700
0E0C1E00
07FDFC00
03FFF000
003F0000
000C0000
000C0000
007FC000
007FC000
ENDCHAR

STARTCHAR afii10039
ENCODING 197
SWIDTH 600 0
DWIDTH 30 0
BBX 30 29 0 0
BITMAP
3FC01FE0
3FC01FE0
0E000380
07000700
03000700
01800E00
01C01C00
00E03800
00703800
00307000
0038E000
001DC000
000FC000
00078000
00078000
000F8000
000DC000
001CE000
00387000
00703000
00E01800
00E01C00
01C00E00
03800600
07000300
07000380
0E0001C0
3FE01FF0
3FE01FF0
ENDCHAR

STARTCHAR afii10040
ENCODING 198
SWIDTH 600 0
DWIDTH 30 0
BBX 29 36 1 -7
BITMAP
7FE07FE0
7FE07FE0
06000600
06000600
06000600
06000600
06000600
06000600
06000600
06000600
06000600
06000600
06000600
06000600
06000600
06000600
06000600
06000600
06000600
06000600
06000600
06000600
06000600
06000600
06000600
06000600
06000600
3FFFFFE0
7FFFFFE0
00000060
00000060
00000060
00000060
00000060
00000060
00000060
ENDCHAR

STARTCHAR afii10041
ENCODING 199
SWIDTH 600 0
DWIDTH 30 0
BBX 29 29 0 0
BITMAP
7FE07FE0
7FE07FE0
06000600
06000600
06000600
06000600
06000600
06000600
06000600
06000600
06000600
06000600
06000600
06000E00
07001E00
03007E00
03C1E600
01FFC600
007E0600
00000600
00000600
00000600
00000600
00000600
00000600
00000600
00000600
0003FFE0
0003FFE0
ENDCHAR

STARTCHAR afii10042
ENCODING 200
SWIDTH 600 0
DWIDTH 30 0
BBX 32 29 -1 0
BITMAP
7FC7F1FC
7FCFF3FC
06018060
06018060
06018060
06018060
06018060
06018060
06018060
06018060
06018060
06018060
06018060
06018060
06018060
06018060
06018060
06018060
06018060
06018060
06018060
06018060
06018060
06018060
06018060
06018060
06018060
3FFFFFFC
3FFFFFFC
ENDCHAR

STARTCHAR afii10043
ENCODING 201
SWIDTH 600 0
DWIDTH 30 0
BBX 33 36 -1 -7
BITMAP
7FC7F1FC00
7FCFF3FC00
0601806000
0601806000
0601806000
0601806000
0601806000
0601806000
0601806000
0601806000
0601806000
0601806000
0601806000
0601806000
0601806000
0601806000
0601806000
0601806000
0601806000
0601806000
0601806000
0601806000
0601806000
0601806000
0601806000
0601806000
0601806000
3FFFFFFE00
3FFFFFFE00
0000000600
0000000600
0000000600
0000000600
0000000600
0000000600
0000000600
ENDCHAR

STARTCHAR afii10044
ENCODING 202
SWIDTH 600 0
DWIDTH 30 0
BBX 32 29 -1 0
BITMAP
7FFF8000
7FFF8000
60180000
60180000
60180000
60180000
60180000
60180000
60180000
60180000
60180000
60180000
00180000
001FFF00
001FFFC0
001801F0
00180078
00180018
0018001C
0018000C
0018000C
0018000C
0018000C
0018001C
00180018
00180038
001800F0
007FFFE0
007FFF80
ENDCHAR

STARTCHAR afii10045
ENCODING 203
SWIDTH 600 0
DWIDTH 30 0
BBX 34 29 -2 0
BITMAP
3FF003FF00
3FF003FF00
0300003000
0300003000
0300003000
0300003000
0300003000
0300003000
0300003000
0300003000
0300003000
0300003000
0300003000
03FF803000
03FFE03000
0301F83000
03003C3000
03001C3000
03000E3000
0300063000
0300063000
0300063000
0300063000
03000E3000
03000C3000
03001C3000
0300783000
3FFFF3FF00
3FFFC3FF00
ENDCHAR

STARTCHAR afii10046
ENCODING 204
SWIDTH 600 0
DWIDTH 30 0
BBX 29 29 0 0
BITMAP
3FF00000
3FF00000
03000000
03000000
03000000
03000000
03000000
03000000
03000000
03000000
03000000
03000000
03000000
03FFF800
03FFFE00
03000F80
030003C0
030000C0
030000E0
03000060
03000060
03000060
03000060
030000E0
030000C0
030001C0
03000780
3FFFFF00
3FFFFC00
ENDCHAR

STARTCHAR afii10047
ENCODING 205
SWIDTH 600 0
DWIDTH 30 0
BBX 27 31 2 -1
BITMAP
007F0000
31FFE000
37C0F000
3F003800
3C001C00
38000E00
30000600
30000300
30000300
00000380
00000180
00000180
00000180
00000180
007FFF80
007FFF80
00000180
00000180
00000180
00000180
00000180
00000300
00000300
00000700
60000E00
30000C00
38001800
1E007000
0781E000
03FFC000
007E0000
ENDCHAR

STARTCHAR afii10048
ENCODING 206
SWIDTH 600 0
DWIDTH 30 0
BBX 33 31 -1 -1
BITMAP
00001F8000
3FC07FE000
3FC1E0F000
0601803800
0603001800
0603001C00
0606000C00
0606000C00
0606000600
060C000600
060C000600
060C000600
060C000600
060C000600
07FC000600
07FC000600
060C000600
060C000600
060C000600
060C000600
060C000600
060C000600
0606000600
0606000C00
0606000C00
0607000C00
0603001800
0601803800
3FC1E0F000
3FC07FE000
00001F8000
ENDCHAR

STARTCHAR afii10049
ENCODING 207
SWIDTH 600 0
DWIDTH 30 0
BBX 31 29 -1 0
BITMAP
000FFFF8
003FFFF8
00780180
00E00180
01C00180
01800180
03000180
03000180
03000180
03000180
01800180
01C00180
00F00180
007C0180
001FFF80
0007FF80
000F0180
001C0180
00380180
00700180
00E00180
00C00180
01800180
03800180
03000180
06000180
06000180
3C003FF8
3C003FF8
ENDCHAR

STARTCHAR afii10065
ENCODING 208
SWIDTH 600 0
DWIDTH 30 0
BBX 26 23 3 -1
BITMAP
00FE0000
0FFF8000
1F81E000
08006000
00003000
00003000
00003000
00003000
00003000
01FFB000
07FFF000
1F00F000
3C003000
30003000
70003000
60003000
60003000
60007000
7000F000
3003F000
1C0F3F00
0FFE3F00
07F00000
ENDCHAR

STARTCHAR afii10066
ENCODING 209
SWIDTH 600 0
DWIDTH 30 0
BBX 28 31 1 -1
BITMAP
00000400
00000E00
00001C00
01FFFC00
03FFF000
0F000000
0C000000
1C000000
183FC000
18FFF000
33E07C00
37000E00
3E000700
3C000380
38000180
380001C0
380001C0
300000C0
300000C0
300000C0
300000C0
300000C0
380001C0
180001C0
1C000180
0C000380
0E000700
07800E00
03E07C00
00FFF000
003FC000
ENDCHAR

STARTCHAR afii10067
ENCODING 210
SWIDTH 600 0
DWIDTH 30 0
BBX 27 21 1 0
BITMAP
3FFFE000
3FFFF800
03001C00
03000E00
03000600
03000600
03000600
03000E00
03003C00
03FFF000
03FFF800
03000E00
03000300
03000180
03000180
03000180
03000180
03000380
03000700
3FFFFE00
3FFFF800
ENDCHAR

STARTCHAR afii10068
ENCODING 211
SWIDTH 600 0
DWIDTH 30 0
BBX 27 21 2 0
BITMAP
3FFFFF80
3FFFFF80
00C00180
00C00180
00C00180
00C00180
00C00180
00C00180
00C00180
00C00180
00C00180
00C00000
00C00000
00C00000
00C00000
00C00000
00C00000
00C00000
00C00000
3FFF0000
3FFF0000
ENDCHAR

STARTCHAR afii10069
ENCODING 212
SWIDTH 600 0
DWIDTH 30 0
BBX 29 26 1 -5
BITMAP
07FFFFE0
07FFFFE0
00600600
00600600
00600600
00600600
00600600
00600600
00600600
00600600
00600600
00600600
00600600
00600600
00E00600
00C00600
01C00600
03800600
0F000600
7FFFFFE0
7FFFFFE0
60000060
60000060
60000060
60000060
60000060
ENDCHAR

STARTCHAR afii10070
ENCODING 213
SWIDTH 600 0
DWIDTH 30 0
BBX 26 23 2 -1
BITMAP
007F0000
01FFE000
07C0F000
0E003800
1C001C00
18000E00
38000600
30000700
70000300
60000300
7FFFFF00
7FFFFF00
60000000
70000000
30000000
30000000
38000000
1C000000
0E000300
07000F00
03C07E00
01FFF800
003FC000
ENDCHAR

STARTCHAR afii10072
ENCODING 214
SWIDTH 600 0
DWIDTH 30 0
BBX 32 21 -1 0
BITMAP
3C0FF078
3F0FF0F8
338181D8
31818398
30C18318
00E18600
00618E00
00318C00
00399800
001FF000
003FFC00
00719E00
00E18600
00C18300
01818300
03818180
030181C0
070180C0
060180E0
7C0FF07C
7C0FF07C
ENDCHAR

STARTCHAR afii10073
ENCODING 215
SWIDTH 600 0
DWIDTH 30 0
BBX 27 23 2 -1
BITMAP
183FE000
19FFF800
1BC03E00
1E000700
1C000700
1C000300
18000300
18000700
00000E00
00007C00
007FF000
00FFFC00
00001F00
00000700
00000380
00000180
00000180
00000180
20000380
3C000700
3F803E00
07FFFC00
00FFE000
ENDCHAR

STARTCHAR afii10074
ENCODING 216
SWIDTH 600 0
DWIDTH 30 0
BBX 30 21 0 0
BITMAP
7FE007F0
7FE00FF0
06000F00
06001F00
06003B00
06007300
0600E300
0600C300
0601C300
06038300
06070300
060E0300
060C0300
06180300
06380300
06700300
06E00300
06C00300
07800300
7F803FF0
7F003FF0
ENDCHAR

STARTCHAR afii10075
ENCODING 217
SWIDTH 600 0
DWIDTH 30 0
BBX 30 31 0 0
BITMAP
00800400
00C00C00
00C00C00
00E01C00
00783800
003FF000
000FC000
00000000
00000000
00000000
7FE007F0
7FE00FF0
06000F00
06001F00
06003B00
06007300
0600E300
0600C300
0601C300
06038300
06070300
060E0300
060C0300
06180300
06380300
06700300
06E00300
06C00300
07800300
7F803FF0
7F003FF0
ENDCHAR

STARTCHAR afii10076
ENCODING 218
SWIDTH 600 0
DWIDTH 30 0
BBX 29 21 1 0
BITMAP
3FF007C0
3FF01FC0
03003CC0
030070C0
0300E0C0
0300C0C0
0301C000
03038000
030F0000
03FE0000
03FF0000
03078000
0301C000
03006000
03007000
03003800
03001800
03001C00
03000E00
3FF007F0
3FF003F0
ENDCHAR

STARTCHAR afii10077
ENCODING 219
SWIDTH 600 0
DWIDTH 30 0
BBX 31 22 -1 -1
BITMAP
01FFFFF8
01FFFFF8
00180180
00180180
00180180
00180180
00180180
00180180
00180180
00180180
00180180
00180180
00180180
00180180
00180180
00180180
10180180
30380180
30300180
30F00FF8
3FE00FF8
1F800000
ENDCHAR

STARTCHAR afii10078
ENCODING 220
SWIDTH 600 0
DWIDTH 30 0
BBX 32 21 -1 0
BITMAP
1F8001FC
1F8001F8
07C001E0
06C00360
06E00360
06600660
06600660
06300C60
06300C60
06181860
06181860
060C3860
060C3060
060E3060
06066060
06076060
0603C060
0603C060
06018060
3FF00FFC
3FF00FFC
ENDCHAR

STARTCHAR afii10079
ENCODING 221
SWIDTH 600 0
DWIDTH 30 0
BBX 29 21 1 0
BITMAP
1FE03FC0
1FE03FC0
06000600
06000600
06000600
06000600
06000600
06000600
06000600
07FFFE00
07FFFE00
06000600
06000600
06000600
06000600
06000600
06000600
06000600
06000600
3FE03FE0
3FE03FE0
ENDCHAR

STARTCHAR afii10080
ENCODING 222
SWIDTH 600 0
DWIDTH 30 0
BBX 26 23 2 -1
BITMAP
007F0000
01FFC000
07C1F000
0E003800
1C001C00
18000C00
38000600
30000600
70000300
60000300
60000300
60000300
60000300
60000300
70000700
30000600
38000600
18000C00
1C001C00
0F003800
07C1F000
01FFC000
007F0000
ENDCHAR

STARTCHAR afii10081
ENCODING 223
SWIDTH 600 0
DWIDTH 30 0
BBX 28 21 1 0
BITMAP
3FFFFF80
3FFFFF80
06000C00
06000C00
06000C00
06000C00
06000C00
06000C00
06000C00
06000C00
06000C00
06000C00
06000C00
06000C00
06000C00
06000C00
06000C00
06000C00
06000C00
3FE07FC0
3FE07FC0
ENDCHAR

STARTCHAR afii10082
ENCODING 224
SWIDTH 600 0
DWIDTH 30 0
BBX 30 31 -1 -9
BITMAP
0007F000
3F1FFE00
3F3C0F00
03700380
03E001C0
03C000E0
03800060
03800070
03000030
03000030
03000030
03000030
03000030
03800070
03800060
03C000E0
03E001C0
03700380
033C0F00
031FFE00
0303F000
03000000
03000000
03000000
03000000
03000000
03000000
03000000
03000000
3FFC0000
3FFC0000
ENDCHAR

STARTCHAR afii10083
ENCODING 225
SWIDTH 600 0
DWIDTH 30 0
BBX 25 23 3 -1
BITMAP
007F0000
03FFCC00
0781FC00
0E003C00
1C001C00
18000C00
30000C00
30000C00
60000000
60000000
60000000
60000000
60000000
60000000
70000000
30000000
30000000
18000600
1C000E00
0E003C00
0780F800
03FFE000
007F0000
ENDCHAR

STARTCHAR afii10084
ENCODING 226
SWIDTH 600 0
DWIDTH 30 0
BBX 25 21 3 0
BITMAP
7FFFFE00
7FFFFE00
60180600
60180600
60180600
60180600
60180600
60180600
60180600
60180600
00180000
00180000
00180000
00180000
00180000
00180000
00180000
00180000
00180000
0FFFF000
0FFFF000
ENDCHAR

STARTCHAR afii10085
ENCODING 227
SWIDTH 600 0
DWIDTH 30 0
BBX 30 29 0 -8
BITMAP
7FC00FF8
7FC00FF8
0E0001C0
06000180
07000380
03000300
03800700
01800600
01C00C00
00C00C00
00601800
00601800
00303000
00383000
00186000
001CE000
000CC000
000FC000
00078000
00078000
00030000
00060000
0C060000
0C0C0000
0C0C0000
0C180000
0C380000
0FF00000
07C00000
ENDCHAR

STARTCHAR afii10086
ENCODING 228
SWIDTH 600 0
DWIDTH 30 0
BBX 28 38 1 -8
BITMAP
00FE0000
00FE0000
00060000
00060000
00060000
00060000
00060000
00060000
01F6F800
03FFFC00
070F0E00
0E060700
1C060380
18060180
180601C0
380601C0
300600C0
300600C0
300600C0
300600C0
300600C0
300600C0
300600C0
380601C0
18060180
18060180
1C060380
0E060700
070F0E00
03FFFC00
01FFF800
00060000
00060000
00060000
00060000
00060000
01FFF800
01FFF800
ENDCHAR

STARTCHAR afii10087
ENCODING 229
SWIDTH 600 0
DWIDTH 30 0
BBX 29 21 1 0
BITMAP
1FE03FC0
1FE03FC0
07000700
03800E00
01C01C00
00E03800
00707000
0038E000
001D8000
00070000
00070000
000DC000
0038E000
00707000
00E03800
01C01C00
03800E00
07000700
0E000380
3FE03FE0
3FE03FE0
ENDCHAR

STARTCHAR afii10088
ENCODING 230
SWIDTH 600 0
DWIDTH 30 0
BBX 29 26 1 -5
BITMAP
3FC07F80
3FC07F80
06000C00
06000C00
06000C00
06000C00
06000C00
06000C00
06000C00
06000C00
06000C00
06000C00
06000C00
06000C00
06000C00
06000C00
06000C00
06000C00
06000C00
3FFFFFE0
7FFFFFE0
00000060
00000060
00000060
00000060
00000060
ENDCHAR

STARTCHAR afii10089
ENCODING 231
SWIDTH 600 0
DWIDTH 30 0
BBX 28 21 0 0
BITMAP
7FE07FE0
7FE07FE0
06000600
06000600
06000600
06000600
06000600
06000600
06000600
06000E00
07003E00
0381FE00
01FFE600
00FF0600
00000600
00000600
00000600
00000600
00000600
0003FFE0
0003FFE0
ENDCHAR

STARTCHAR afii10090
ENCODING 232
SWIDTH 600 0
DWIDTH 30 0
BBX 31 21 0 0
BITMAP
7F0FE3F8
7F0FE3F8
0C0300C0
0C0300C0
0C0300C0
0C0300C0
0C0300C0
0C0300C0
0C0300C0
0C0300C0
0C0300C0
0C0300C0
0C0300C0
0C0300C0
0C0300C0
0C0300C0
0C0300C0
0C0300C0
0C0300C0
7FFFFFF8
7FFFFFF8
ENDCHAR

STARTCHAR afii10091
ENCODING 233
SWIDTH 600 0
DWIDTH 30 0
BBX 33 26 -1 -5
BITMAP
3F8FE1FC00
3F8FE1FC00
0C01806000
0C01806000
0C01806000
0C01806000
0C01806000
0C01806000
0C01806000
0C01806000
0C01806000
0C01806000
0C01806000
0C01806000
0C01806000
0C01806000
0C01806000
0C01806000
0C01806000
7FFFFFFE00
7FFFFFFE00
0000000600
0000000600
0000000600
0000000600
0000000600
ENDCHAR

STARTCHAR afii10092
ENCODING 234
SWIDTH 600 0
DWIDTH 30 0
BBX 30 21 1 0
BITMAP
7FFF8000
7FFF8000
60180000
60180000
60180000
60180000
60180000
60180000
00180000
001FFF00
001FFFC0
001801E0
00180070
00180030
00180030
00180030
00180030
00180070
001801E0
00FFFFC0
00FFFF00
ENDCHAR

STARTCHAR afii10093
ENCODING 235
SWIDTH 600 0
DWIDTH 30 0
BBX 32 21 -1 0
BITMAP
7FC00FFC
7FC00FFC
0C0000C0
0C0000C0
0C0000C0
0C0000C0
0C0000C0
0C0000C0
0C0000C0
0FFF00C0
0FFFC0C0
0C01E0C0
0C0070C0
0C0030C0
0C0030C0
0C0030C0
0C0030C0
0C0070C0
0C01E0C0
3FFFCFFC
3FFF0FFC
ENDCHAR

STARTCHAR afii10094
ENCODING 236
SWIDTH 600 0
DWIDTH 30 0
BBX 23 21 3 0
BITMAP
7FC000
7FC000
0C0000
0C0000
0C0000
0C0000
0C0000
0C0000
0C0000
0FFF80
0FFFE0
0C0070
0C0038
0C0018
0C0018
0C0018
0C0018
0C0038
0C00F0
3FFFE0
3FFF80
ENDCHAR

STARTCHAR afii10095
ENCODING 237
SWIDTH 600 0
DWIDTH 30 0
BBX 26 23 1 -1
BITMAP
007F8000
19FFE000
1FC0F000
1F003800
1C001C00
1C000E00
18000600
18000300
00000300
00000300
00000300
003FFF00
003FFF00
00000300
00000300
00000300
00000700
30000600
38000C00
1E003C00
0F80F000
03FFE000
007F8000
ENDCHAR

STARTCHAR afii10096
ENCODING 238
SWIDTH 600 0
DWIDTH 30 0
BBX 31 23 0 -1
BITMAP
00007E00
3FE0FF80
3FE3C3C0
060300E0
06060060
060E0030
060C0030
060C0038
06180018
06180018
07F80018
07F80018
06180018
06180018
06180018
060C0018
060C0030
060E0030
06060060
060700E0
7FE3C3C0
7FE1FF80
00007E00
ENDCHAR

STARTCHAR afii10097
ENCODING 239
SWIDTH 600 0
DWIDTH 30 0
BBX 26 21 2 0
BITMAP
007FFF00
01FFFF00
03801800
03001800
06001800
06001800
06001800
06001800
06001800
03001800
03C01800
00FFF800
003FF800
00701800
01C01800
03801800
07001800
06001800
0C001800
3C01FF80
3C01FF80
ENDCHAR

STARTCHAR afii61352
ENCODING 240
SWIDTH 600 0
DWIDTH 30 0
BBX 31 29 -1 0
BITMAP
3F07FC00
3F07FC00
07806000
078060F0
078060F8
06C06198
06C06198
06606198
06606198
06606198
06306198
06306198
06306198
06186198
061861F8
061860F0
060C6000
060C6000
06066000
06066000
060660F8
060360F8
06036000
06036000
0601E000
0601E000
0601E000
3FE0E000
3FE0E000
ENDCHAR

STARTCHAR afii10071
ENCODING 241
SWIDTH 600 0
DWIDTH 30 0
BBX 25 31 2 -1
BITMAP
01806000
03C0F000
03C0F000
01806000
00000000
00000000
00000000
00000000
007F0000
01FFC000
07C0F000
0F003800
0C001C00
18000C00
38000600
30000600
30000600
70000300
7FFFFF00
7FFFFF00
70000000
30000000
30000000
30000000
18000000
1C000000
0E000300
07000F00
03C07C00
01FFF800
003F8000
ENDCHAR

STARTCHAR afii10099
ENCODING 242
SWIDTH 600 0
DWIDTH 30 0
BBX 26 39 2 -9
BITMAP
3F000000
3F000000
03000000
03000000
3FFF8000
3FFF8000
03000000
03000000
0307E000
031FF800
03381C00
03E00E00
03C00700
03800300
03000300
03000300
03000300
03000300
03000300
03000300
03000300
03000300
03000300
03000300
03000300
03000300
03000300
03000300
3FE00300
3FE00300
00000300
00000300
00000300
00000300
00000600
00000E00
00001C00
00FFF800
00FFE000
ENDCHAR

STARTCHAR afii10100
ENCODING 243
SWIDTH 600 0
DWIDTH 30 0
BBX 27 32 2 0
BITMAP
0000C000
0001C000
00038000
00070000
001E0000
00380000
00300000
00000000
00000000
00000000
00000000
3FFFFF80
3FFFFF80
00C00180
00C00180
00C00180
00C00180
00C00180
00C00180
00C00180
00C00180
00C00180
00C00000
00C00000
00C00000
00C00000
00C00000
00C00000
00C00000
00C00000
3FFF0000
3FFF0000
ENDCHAR

STARTCHAR afii10101
ENCODING 244
SWIDTH 600 0
DWIDTH 30 0
BBX 26 23 3 -1
BITMAP
003F8000
01FFE600
03C0FE00
07003E00
0E000E00
1C000600
18000600
38000600
30000000
30000000
30000000
3FFF0000
3FFF0000
30000000
30000000
30000000
38000000
18000300
0C000700
0F001E00
03C07C00
01FFF000
007F8000
ENDCHAR

STARTCHAR afii10102
ENCODING 245
SWIDTH 600 0
DWIDTH 30 0
BBX 23 23 4 -1
BITMAP
01FE00
07FFB0
1F03F0
1C00F0
380070
300030
300030
380000
1C0000
0FE000
03FF00
000FC0
0000F0
000030
000018
600018
600018
600018
700030
780070
7E01E0
67FFC0
01FE00
ENDCHAR

STARTCHAR afii10103
ENCODING 246
SWIDTH 600 0
DWIDTH 30 0
BBX 24 31 3 0
BITMAP
003800
003800
003800
003800
003800
000000
000000
000000
000000
000000
0FF800
0FF800
001800
001800
001800
001800
001800
001800
001800
001800
001800
001800
001800
001800
001800
001800
001800
001800
001800
3FFFFC
3FFFFC
ENDCHAR

STARTCHAR afii10104
ENCODING 247
SWIDTH 600 0
DWIDTH 30 0
BBX 24 30 3 0
BITMAP
0C0300
1E0780
1E0780
0C0300
000000
000000
000000
000000
000000
0FF800
0FF800
001800
001800
001800
001800
001800
001800
001800
001800
001800
001800
001800
001800
001800
001800
001800
001800
001800
3FFFFC
3FFFFC
ENDCHAR

STARTCHAR afii10105
ENCODING 248
SWIDTH 600 0
DWIDTH 30 0
BBX 19 41 3 -10
BITMAP
000E00
000E00
000E00
000E00
000E00
000000
000000
000000
000000
000000
3FFF80
3FFF80
000180
000180
000180
000180
000180
000180
000180
000180
000180
000180
000180
000180
000180
000180
000180
000180
000180
000180
000180
000180
000180
000180
000180
000180
000300
000700
000E00
3FFC00
3FF000
ENDCHAR

STARTCHAR afii10106
ENCODING 249
SWIDTH 600 0
DWIDTH 30 0
BBX 31 22 -1 -1
BITMAP
01FFFE00
01FFFE00
00183000
00183000
00183000
00183000
00183000
00183000
00183000
00183F80
00183FE0
00183070
00183038
00183018
00183018
00183018
30183018
30383038
30303070
30F1FFE0
3FE1FF80
1F800000
ENDCHAR

STARTCHAR afii10107
ENCODING 250
SWIDTH 600 0
DWIDTH 30 0
BBX 34 21 -2 0
BITMAP
3FC7FC0000
3FC7FC0000
0600C00000
0600C00000
0600C00000
0600C00000
0600C00000
0600C00000
0600C00000
07FFFFF000
07FFFFFC00
0600C01E00
0600C00700
0600C00300
0600C00300
0600C00300
0600C00300
0600C00700
0600C01E00
7FC3FFFC00
7FC3FFF000
ENDCHAR

STARTCHAR afii10108
ENCODING 251
SWIDTH 600 0
DWIDTH 30 0
BBX 29 30 1 0
BITMAP
3F000000
3F000000
03000000
03000000
3FFF0000
3FFF0000
03000000
03000000
0307C000
031FF000
03783800
03E01C00
03C00E00
03800600
03000600
03000600
03000600
03000600
03000600
03000600
03000600
03000600
03000600
03000600
03000600
03000600
03000600
03000600
3FE03FE0
3FE03FE0
ENDCHAR

STARTCHAR afii10109
ENCODING 252
SWIDTH 600 0
DWIDTH 30 0
BBX 29 32 1 0
BITMAP
00006000
0000E000
0003C000
00070000
000E0000
001C0000
00180000
00000000
00000000
00000000
00000000
3FF007C0
3FF01FC0
03003CC0
030070C0
0300E0C0
0300C0C0
0301C000
03038000
030F0000
03FE0000
03FF0000
03078000
0301C000
03006000
03007000
03003800
03001800
03001C00
03000E00
3FF007F0
3FF003F0
ENDCHAR

STARTCHAR section
ENCODING 253
SWIDTH 600 0
DWIDTH 30 0
BBX 26 34 2 -4
BITMAP
003FFC00
007FFC00
00C00400
01800400
01000400
03000400
03000400
03000000
01800000
0FC00000
3C600000
20300000
601C0000
60070000
3001C000
3800E000
1C003800
06000C00
03800600
00E00300
00700180
001C0180
00070180
00038300
0000FE00
00007800
00002000
00003000
08003000
08003000
08002000
08006000
0801C000
0FFF8000
ENDCHAR

STARTCHAR afii10110
ENCODING 254
SWIDTH 600 0
DWIDTH 30 0
BBX 30 38 0 -7
BITMAP
00800400
00C00C00
00C00C00
00E01C00
00783800
003FF000
000FC000
00000000
00000000
00000000
7FC00FF8
7FC00FF8
0E0001C0
06000180
07000380
03000300
01800600
01800600
00C00C00
00E00C00
00601800
00703800
00303000
00387000
00186000
000CC000
000EC000
00078000
00078000
00030000
00070000
00060000
0C0C0000
0C0C0000
0C180000
0C380000
0FF00000
07C00000
ENDCHAR

STARTCHAR afii10193
ENCODING 255
SWIDTH 600 0
DWIDTH 30 0
BBX 28 28 1 -7
BITMAP
3FC03FC0
3FC03FC0
06000600
06000600
06000600
06000600
06000600
06000600
06000600
06000600
06000600
06000600
06000600
06000600
06000600
06000600
06000600
06000600
06000600
3FFFFFE0
7FFFFFE0
00060000
00060000
00060000
00060000
00060000
00060000
00060000
ENDCHAR
ENDFONT
